<mxfile host="app.diagrams.net" modified="2023-02-28T08:15:24.318Z" agent="5.0 (Windows NT 10.0; Win64; x64) AppleWebKit/537.36 (KHTML, like Gecko) Chrome/109.0.0.0 Safari/537.36 OPR/95.0.0.0" etag="-YvMaN3iJxgGeAf96R3F" version="20.8.23" type="github">
  <diagram name="Страница 1" id="s1O34VC9j3Pxhvvpn_9F">
    <mxGraphModel dx="1009" dy="542" grid="1" gridSize="10" guides="1" tooltips="1" connect="1" arrows="1" fold="1" page="1" pageScale="1" pageWidth="827" pageHeight="1169" math="0" shadow="0">
      <root>
        <mxCell id="0" />
        <mxCell id="1" parent="0" />
        <mxCell id="-oCu7SD0hpqlAKcRBWqc-25" value="Сайт" style="rounded=0;whiteSpace=wrap;html=1;fillColor=none;align=center;horizontal=1;verticalAlign=top;" parent="1" vertex="1">
          <mxGeometry x="274" y="410" width="240" height="320" as="geometry" />
        </mxCell>
        <mxCell id="-oCu7SD0hpqlAKcRBWqc-26" value="Театр" style="shape=umlActor;verticalLabelPosition=bottom;verticalAlign=top;html=1;outlineConnect=0;fillColor=none;" parent="1" vertex="1">
          <mxGeometry x="634" y="505" width="30" height="60" as="geometry" />
        </mxCell>
        <mxCell id="-oCu7SD0hpqlAKcRBWqc-29" value="Добавление спектаклей" style="ellipse;whiteSpace=wrap;html=1;fillColor=none;" parent="1" vertex="1">
          <mxGeometry x="418" y="415" width="86" height="60" as="geometry" />
        </mxCell>
        <mxCell id="-oCu7SD0hpqlAKcRBWqc-30" value="Редактирование расписания&amp;nbsp;" style="ellipse;whiteSpace=wrap;html=1;fillColor=none;" parent="1" vertex="1">
          <mxGeometry x="404" y="525" width="100" height="70" as="geometry" />
        </mxCell>
        <mxCell id="-oCu7SD0hpqlAKcRBWqc-33" value="" style="endArrow=none;html=1;rounded=0;strokeColor=#000000;" parent="1" target="-oCu7SD0hpqlAKcRBWqc-26" edge="1">
          <mxGeometry width="50" height="50" relative="1" as="geometry">
            <mxPoint x="504" y="445" as="sourcePoint" />
            <mxPoint x="624" y="545" as="targetPoint" />
          </mxGeometry>
        </mxCell>
        <mxCell id="-oCu7SD0hpqlAKcRBWqc-34" value="" style="endArrow=none;html=1;rounded=0;strokeColor=#000000;" parent="1" target="-oCu7SD0hpqlAKcRBWqc-26" edge="1">
          <mxGeometry width="50" height="50" relative="1" as="geometry">
            <mxPoint x="504" y="565" as="sourcePoint" />
            <mxPoint x="634" y="665" as="targetPoint" />
          </mxGeometry>
        </mxCell>
        <mxCell id="-oCu7SD0hpqlAKcRBWqc-36" value="Вход" style="ellipse;whiteSpace=wrap;html=1;fillColor=none;" parent="1" vertex="1">
          <mxGeometry x="298" y="415" width="86" height="60" as="geometry" />
        </mxCell>
        <mxCell id="-oCu7SD0hpqlAKcRBWqc-37" value="Регистрация" style="ellipse;whiteSpace=wrap;html=1;fillColor=none;" parent="1" vertex="1">
          <mxGeometry x="298" y="495" width="86" height="60" as="geometry" />
        </mxCell>
        <mxCell id="-oCu7SD0hpqlAKcRBWqc-38" value="Покупка билетов" style="ellipse;whiteSpace=wrap;html=1;fillColor=none;" parent="1" vertex="1">
          <mxGeometry x="298" y="575" width="86" height="60" as="geometry" />
        </mxCell>
        <mxCell id="-oCu7SD0hpqlAKcRBWqc-39" value="Просмотр расписания" style="ellipse;whiteSpace=wrap;html=1;fillColor=none;" parent="1" vertex="1">
          <mxGeometry x="298" y="665" width="86" height="60" as="geometry" />
        </mxCell>
        <mxCell id="-oCu7SD0hpqlAKcRBWqc-40" value="Пользователь" style="shape=umlActor;verticalLabelPosition=bottom;verticalAlign=top;html=1;outlineConnect=0;fillColor=none;" parent="1" vertex="1">
          <mxGeometry x="164" y="530" width="30" height="60" as="geometry" />
        </mxCell>
        <mxCell id="-oCu7SD0hpqlAKcRBWqc-41" value="" style="endArrow=none;html=1;rounded=0;strokeColor=#000000;exitX=0;exitY=0.5;exitDx=0;exitDy=0;" parent="1" source="-oCu7SD0hpqlAKcRBWqc-36" target="-oCu7SD0hpqlAKcRBWqc-40" edge="1">
          <mxGeometry width="50" height="50" relative="1" as="geometry">
            <mxPoint x="64" y="424" as="sourcePoint" />
            <mxPoint x="194" y="505" as="targetPoint" />
          </mxGeometry>
        </mxCell>
        <mxCell id="-oCu7SD0hpqlAKcRBWqc-42" value="" style="endArrow=none;html=1;rounded=0;strokeColor=#000000;exitX=0;exitY=0.5;exitDx=0;exitDy=0;" parent="1" source="-oCu7SD0hpqlAKcRBWqc-37" target="-oCu7SD0hpqlAKcRBWqc-40" edge="1">
          <mxGeometry width="50" height="50" relative="1" as="geometry">
            <mxPoint x="308" y="455" as="sourcePoint" />
            <mxPoint x="204" y="556" as="targetPoint" />
          </mxGeometry>
        </mxCell>
        <mxCell id="-oCu7SD0hpqlAKcRBWqc-43" value="" style="endArrow=none;html=1;rounded=0;strokeColor=#000000;exitX=0;exitY=0.5;exitDx=0;exitDy=0;" parent="1" source="-oCu7SD0hpqlAKcRBWqc-38" target="-oCu7SD0hpqlAKcRBWqc-40" edge="1">
          <mxGeometry width="50" height="50" relative="1" as="geometry">
            <mxPoint x="308" y="535" as="sourcePoint" />
            <mxPoint x="204" y="566" as="targetPoint" />
          </mxGeometry>
        </mxCell>
        <mxCell id="-oCu7SD0hpqlAKcRBWqc-44" value="" style="endArrow=none;html=1;rounded=0;strokeColor=#000000;exitX=0;exitY=0.5;exitDx=0;exitDy=0;" parent="1" source="-oCu7SD0hpqlAKcRBWqc-39" target="-oCu7SD0hpqlAKcRBWqc-40" edge="1">
          <mxGeometry width="50" height="50" relative="1" as="geometry">
            <mxPoint x="308" y="615" as="sourcePoint" />
            <mxPoint x="204" y="576" as="targetPoint" />
          </mxGeometry>
        </mxCell>
      </root>
    </mxGraphModel>
  </diagram>
</mxfile>
